<svg width="108" height="65" viewBox="0 0 108 65" fill="none" xmlns="http://www.w3.org/2000/svg">
<g filter="url(#filter0_d_394_4654)">
<rect x="4" y="3.82202" width="100" height="56" rx="5" fill="white"/>
</g>
<path fill-rule="evenodd" clip-rule="evenodd" d="M64.9355 40.5812C60.4149 41.6715 55.9911 43.0318 51.611 44.5888C50.9851 44.8255 50.3056 44.5181 50.1398 43.9171C49.7873 42.637 49.4745 41.6523 49.1261 40.3766C48.98 39.8412 49.2931 39.2592 49.8485 39.0566C54.2301 37.5616 58.6531 36.3869 63.178 35.4123C63.6769 35.3102 64.2018 35.6769 64.3815 36.2389C64.7472 37.3828 65.0654 38.302 65.4211 39.4509C65.5825 39.9717 65.369 40.4766 64.9355 40.5812ZM42.2604 38.1384C41.9929 36.7616 41.7228 35.7276 41.4605 34.354C41.3583 33.8168 41.6509 33.207 42.139 32.9776C48.8307 30.0377 55.8872 28.2588 63.1343 27.3416C63.6115 27.2794 64.0937 27.6315 64.2715 28.1581C64.6538 29.2909 64.98 30.2047 65.3513 31.3428C65.5305 31.8919 65.2918 32.4249 64.8235 32.501C57.4549 33.6744 50.2719 35.6425 43.4748 38.7336C42.9287 38.9979 42.375 38.727 42.2604 38.1384ZM45.5185 22.4898C50.0006 21.2007 54.4728 20.3637 59.1019 19.7968C59.6071 19.7425 60.1006 20.0687 60.2832 20.5661C60.713 21.7376 61.0631 22.6712 61.4837 23.8493C61.6834 24.4083 61.3864 24.9657 60.8435 25.0379C56.1066 25.7344 51.5159 26.6919 46.9365 28.0911C46.378 28.2755 45.8282 27.9951 45.687 27.4516C45.3537 26.166 45.0509 25.1781 44.7234 23.8966C44.5764 23.3207 44.9346 22.6716 45.5185 22.4898ZM54.3637 11.7311C43.0671 11.7311 33.9092 20.889 33.9092 32.1857C33.9092 43.4823 43.0671 52.6402 54.3637 52.6402C65.6604 52.6402 74.8183 43.4823 74.8183 32.1857C74.8183 20.889 65.6604 11.7311 54.3637 11.7311Z" fill="#2C2A29"/>
<defs>
<filter id="filter0_d_394_4654" x="0" y="0.822021" width="108" height="64" filterUnits="userSpaceOnUse" color-interpolation-filters="sRGB">
<feFlood flood-opacity="0" result="BackgroundImageFix"/>
<feColorMatrix in="SourceAlpha" type="matrix" values="0 0 0 0 0 0 0 0 0 0 0 0 0 0 0 0 0 0 127 0" result="hardAlpha"/>
<feOffset dy="1"/>
<feGaussianBlur stdDeviation="2"/>
<feComposite in2="hardAlpha" operator="out"/>
<feColorMatrix type="matrix" values="0 0 0 0 0 0 0 0 0 0 0 0 0 0 0 0 0 0 0.102751 0"/>
<feBlend mode="normal" in2="BackgroundImageFix" result="effect1_dropShadow_394_4654"/>
<feBlend mode="normal" in="SourceGraphic" in2="effect1_dropShadow_394_4654" result="shape"/>
</filter>
</defs>
</svg>
