<svg width="108" height="65" viewBox="0 0 108 65" fill="none" xmlns="http://www.w3.org/2000/svg">
<g filter="url(#filter0_d_3214_8342)">
<rect x="4" y="3.82202" width="100" height="56" rx="5" fill="white"/>
</g>
<path d="M54 52C65.0457 52 74 43.0457 74 32C74 20.9543 65.0457 12 54 12C42.9543 12 34 20.9543 34 32C34 43.0457 42.9543 52 54 52Z" fill="#2B2929"/>
<path d="M41.2568 40.4572H66.7425V23.543H41.2568V40.4572ZM42.4568 24.743H65.5425V39.2573H42.4568V24.743Z" fill="#FAFAFA"/>
<path d="M54.0005 27.8287C53.1755 27.8287 52.369 28.0734 51.683 28.5318C50.997 28.9901 50.4624 29.6416 50.1466 30.4038C49.8309 31.1661 49.7483 32.0048 49.9093 32.814C50.0702 33.6231 50.4675 34.3664 51.0509 34.9498C51.6343 35.5332 52.3775 35.9305 53.1867 36.0914C53.9959 36.2524 54.8346 36.1698 55.5969 35.8541C56.3591 35.5383 57.0106 35.0037 57.4689 34.3177C57.9273 33.6317 58.172 32.8252 58.172 32.0002C58.172 30.8938 57.7325 29.8328 56.9502 29.0505C56.1679 28.2682 55.1069 27.8287 54.0005 27.8287ZM54.0005 34.9716C53.4128 34.9716 52.8383 34.7973 52.3497 34.4708C51.861 34.1443 51.4802 33.6802 51.2553 33.1373C51.0304 32.5943 50.9715 31.9969 51.0862 31.4205C51.2008 30.8441 51.4838 30.3146 51.8994 29.899C52.315 29.4835 52.8444 29.2005 53.4208 29.0858C53.9972 28.9712 54.5947 29.03 55.1376 29.2549C55.6806 29.4798 56.1447 29.8607 56.4712 30.3493C56.7977 30.838 56.972 31.4125 56.972 32.0002C56.9682 32.7871 56.6539 33.5407 56.0975 34.0971C55.5411 34.6536 54.7874 34.9678 54.0005 34.9716Z" fill="#FAFAFA"/>
<path d="M59.8291 27.6147H62.6862V36.3861H59.8291V37.6147H63.8862V26.3861H59.8291V27.6147Z" fill="#FAFAFA"/>
<path d="M44.1152 37.6147H48.1724V36.3861H45.3152V27.6147H48.1724V26.3861H44.1152V37.6147Z" fill="#FAFAFA"/>
<defs>
<filter id="filter0_d_3214_8342" x="0" y="0.822021" width="108" height="64" filterUnits="userSpaceOnUse" color-interpolation-filters="sRGB">
<feFlood flood-opacity="0" result="BackgroundImageFix"/>
<feColorMatrix in="SourceAlpha" type="matrix" values="0 0 0 0 0 0 0 0 0 0 0 0 0 0 0 0 0 0 127 0" result="hardAlpha"/>
<feOffset dy="1"/>
<feGaussianBlur stdDeviation="2"/>
<feComposite in2="hardAlpha" operator="out"/>
<feColorMatrix type="matrix" values="0 0 0 0 0 0 0 0 0 0 0 0 0 0 0 0 0 0 0.102751 0"/>
<feBlend mode="normal" in2="BackgroundImageFix" result="effect1_dropShadow_3214_8342"/>
<feBlend mode="normal" in="SourceGraphic" in2="effect1_dropShadow_3214_8342" result="shape"/>
</filter>
</defs>
</svg>
