<svg width="108" height="65" viewBox="0 0 108 65" fill="none" xmlns="http://www.w3.org/2000/svg">
<g filter="url(#filter0_d_394_4704)">
<rect x="4" y="3.82202" width="100" height="56" rx="5" fill="white"/>
</g>
<path d="M50.4734 49.8513C50.4734 49.8513 53.7879 55.8894 58.365 50.7488C58.6175 50.4649 58.8859 50.1646 59.1637 49.848C57.2097 48.8036 50.9563 45.4581 45.3027 42.3411C48.1343 46.4732 50.4734 49.8513 50.4734 49.8513Z" fill="#FF2879"/>
<path d="M42.8029 17.96L38.4783 20.3948C38.4783 20.3948 33.4813 23.4367 36.0414 28.3423C36.1803 28.1661 36.2686 28.0649 36.2686 28.0649L42.8029 17.96Z" fill="#FF2879"/>
<path d="M59.3901 12.7248C59.3901 12.7248 57.916 9.44137 54.2605 11.5009L51.5742 13.0153C53.2851 13.7627 59.2923 16.3869 64.043 18.4464C61.4672 15.3 59.3901 12.7248 59.3901 12.7248Z" fill="#FF2879"/>
<path d="M72.491 28.5547C72.1754 28.1924 71.7903 27.7583 71.3736 27.272C70.7612 29.6056 69.3912 34.8311 68.1475 39.6127C70.4203 37.0016 72.0965 35.0824 72.0965 35.0824C72.0965 35.0824 75.9634 32.4713 72.491 28.5547Z" fill="#FF2879"/>
<path d="M36.0567 28.3424C35.1097 29.5305 31.8205 34.2826 36.284 37.1222C38.0991 38.2809 41.5809 40.2555 45.3184 42.3248C42.0386 37.5204 38.0991 31.6846 36.3629 28.8809C36.2335 28.7014 36.1325 28.5219 36.0567 28.3424Z" fill="#00CBD2"/>
<path d="M51.1057 12.7933C51.1057 12.7933 47.7502 10.2932 45.8183 13.2829L42.8037 17.947L51.5761 13.0022L51.1057 12.7933Z" fill="#00CBD2"/>
<path d="M71.703 26.0251C71.703 26.0251 73.2024 22.3532 69.3355 20.7213C68.2307 20.2578 66.2767 19.4157 64.0449 18.4366C66.4945 21.4328 69.3923 24.948 71.3747 27.249C71.5799 26.5016 71.703 26.0251 71.703 26.0251Z" fill="#00CBD2"/>
<path d="M59.7859 50.1777C59.7859 50.1777 64.7577 52.952 66.0203 47.893C66.456 46.1468 67.283 42.9972 68.1479 39.6125C65.3985 42.7654 61.7715 46.9073 59.1641 49.848L59.7859 50.1777Z" fill="#00CBD2"/>
<path d="M64.0438 18.4465C59.3088 16.387 53.2859 13.7628 51.575 13.0154L42.8026 17.9601L36.2683 28.0781C36.2683 28.0781 36.1799 28.1793 36.041 28.3556C36.1326 28.5351 36.2336 28.7146 36.3567 28.8941C38.0928 31.6978 42.0387 37.5336 45.3121 42.338C50.972 45.4713 57.2191 48.8168 59.173 49.8449C61.7804 46.9074 65.4075 42.7623 68.1569 39.6094C69.4006 34.8278 70.7706 29.6024 71.383 27.2687C69.3912 24.9579 66.4933 21.4427 64.0438 18.4465Z" fill="#210049"/>
<defs>
<filter id="filter0_d_394_4704" x="0" y="0.822021" width="108" height="64" filterUnits="userSpaceOnUse" color-interpolation-filters="sRGB">
<feFlood flood-opacity="0" result="BackgroundImageFix"/>
<feColorMatrix in="SourceAlpha" type="matrix" values="0 0 0 0 0 0 0 0 0 0 0 0 0 0 0 0 0 0 127 0" result="hardAlpha"/>
<feOffset dy="1"/>
<feGaussianBlur stdDeviation="2"/>
<feComposite in2="hardAlpha" operator="out"/>
<feColorMatrix type="matrix" values="0 0 0 0 0 0 0 0 0 0 0 0 0 0 0 0 0 0 0.102751 0"/>
<feBlend mode="normal" in2="BackgroundImageFix" result="effect1_dropShadow_394_4704"/>
<feBlend mode="normal" in="SourceGraphic" in2="effect1_dropShadow_394_4704" result="shape"/>
</filter>
</defs>
</svg>
