<svg width="108" height="64" viewBox="0 0 108 64" fill="none" xmlns="http://www.w3.org/2000/svg">
<g filter="url(#filter0_d_3215_8327)">
<rect x="4" y="3" width="100" height="56" rx="5" fill="white"/>
</g>
<path d="M44.4746 41.761L47.9564 21.4157H53.5256L50.0407 41.761H44.4735H44.4746ZM70.1612 21.8543C69.058 21.4417 67.3286 21 65.1702 21C59.6667 21 55.7915 23.7593 55.7581 27.7138C55.7267 30.6374 58.5249 32.268 60.6374 33.2419C62.8051 34.2396 63.5336 34.8746 63.5232 35.7653C63.5096 37.1288 61.7917 37.7524 60.1917 37.7524C57.9624 37.7524 56.7788 37.4437 54.9492 36.684L54.2311 36.3608L53.4494 40.915C54.7498 41.4824 57.1556 41.9751 59.6532 42C65.5073 42 69.3074 39.2718 69.3512 35.0492C69.3721 32.7347 67.888 30.9731 64.6755 29.5212C62.729 28.5796 61.537 27.9518 61.5496 26.9988C61.5496 26.1528 62.5588 25.2486 64.7391 25.2486C66.5604 25.2206 67.8796 25.6166 68.9077 26.0281L69.4066 26.263L70.1612 21.8533V21.8543ZM84.4922 21.4147H80.1891C78.8563 21.4147 77.8585 21.7774 77.273 23.1015L69.0027 41.7464H74.8505C74.8505 41.7464 75.8065 39.2396 76.0226 38.6888C76.6613 38.6888 82.3422 38.6971 83.1553 38.6971C83.3223 39.409 83.8326 41.7454 83.8326 41.7454H89L84.4922 21.4126V21.4147ZM77.6643 34.5535C78.1246 33.3811 79.8833 28.8664 79.8833 28.8664C79.8499 28.9205 80.3404 27.6889 80.6212 26.925L80.9969 28.6794C80.9969 28.6794 82.0635 33.536 82.2859 34.5545H77.6633L77.6643 34.5535ZM39.7466 21.4157L34.2943 35.2903L33.713 32.4707C32.6974 29.2208 29.5361 25.6997 26 23.936L30.9858 41.7287L36.8785 41.7225L45.6456 21.4157H39.7466" fill="#1A1F71"/>
<path d="M27.6974 20.001H19.0682L19 20.4214C25.7136 22.0948 30.1556 26.1399 32 31L30.1235 21.7075C29.7996 20.4266 28.8598 20.0455 27.6974 20" fill="#F2AE14"/>
<defs>
<filter id="filter0_d_3215_8327" x="0" y="0" width="108" height="64" filterUnits="userSpaceOnUse" color-interpolation-filters="sRGB">
<feFlood flood-opacity="0" result="BackgroundImageFix"/>
<feColorMatrix in="SourceAlpha" type="matrix" values="0 0 0 0 0 0 0 0 0 0 0 0 0 0 0 0 0 0 127 0" result="hardAlpha"/>
<feOffset dy="1"/>
<feGaussianBlur stdDeviation="2"/>
<feComposite in2="hardAlpha" operator="out"/>
<feColorMatrix type="matrix" values="0 0 0 0 0 0 0 0 0 0 0 0 0 0 0 0 0 0 0.102751 0"/>
<feBlend mode="normal" in2="BackgroundImageFix" result="effect1_dropShadow_3215_8327"/>
<feBlend mode="normal" in="SourceGraphic" in2="effect1_dropShadow_3215_8327" result="shape"/>
</filter>
</defs>
</svg>
